<?xml version="1.0" standalone="no"?>
<!DOCTYPE svg PUBLIC "-//W3C//DTD SVG 20010904//EN"
 "http://www.w3.org/TR/2001/REC-SVG-20010904/DTD/svg10.dtd">
<svg version="1.0" xmlns="http://www.w3.org/2000/svg"
 width="256.000000pt" height="256.000000pt" viewBox="0 0 256.000000 256.000000"
 preserveAspectRatio="xMidYMid meet">
<metadata>
Created by potrace 1.14, written by Peter Selinger 2001-2017
</metadata>
<g transform="translate(0.000000,256.000000) scale(0.100000,-0.100000)"
fill="#000000" stroke="none">
<path d="M1005 1709 c-33 -28 -78 -67 -100 -86 -96 -84 -127 -107 -148 -110
-12 -2 -96 -17 -187 -33 -91 -16 -181 -32 -200 -35 -19 -3 -69 -12 -110 -20
-41 -8 -91 -17 -110 -20 -19 -4 -46 -16 -59 -28 -30 -27 -91 -121 -91 -140 0
-16 140 -155 220 -220 133 -106 255 -175 360 -202 52 -14 92 -15 224 -10 89 3
179 8 201 10 22 1 90 6 150 9 61 4 133 9 160 11 28 3 86 7 130 10 44 3 105 8
135 10 30 2 96 7 145 11 50 3 106 7 125 9 19 2 73 6 120 10 47 3 103 8 125 10
22 2 83 7 135 11 52 4 106 8 120 10 14 1 35 2 47 3 16 1 43 28 93 94 38 52 70
99 70 105 0 11 -48 102 -87 164 -13 21 -23 40 -23 44 0 19 -68 87 -104 103
-24 11 -102 25 -191 35 -82 10 -161 19 -175 21 -14 2 -50 6 -80 10 -190 21
-216 28 -250 66 -3 3 -25 19 -50 36 -129 88 -294 144 -461 158 l-74 6 -60 -52z"/>
</g>
</svg>
